<?xml version="1.0" encoding="utf-8"?>
<!-- Generator: Adobe Illustrator 24.2.1, SVG Export Plug-In . SVG Version: 6.00 Build 0)  -->
<svg version="1.1" id="Слой_1" xmlns="http://www.w3.org/2000/svg" xmlns:xlink="http://www.w3.org/1999/xlink" x="0px" y="0px"
	 viewBox="0 0 100 100" style="enable-background:new 0 0 100 100;" xml:space="preserve">
<style type="text/css">
	.st0{fill:#FFFFFF;}
	.st1{stroke:#000000;stroke-width:2;stroke-miterlimit:50;}
	.st2{stroke:#FFFFFF;stroke-width:5;stroke-miterlimit:50;}
	.st3{fill:#CD2E3A;}
	.st4{fill:#0047A0;}
</style>
<rect x="-29.4" y="-2.9" class="st0" width="158.8" height="105.9"/>
<g transform="rotate(-56.3099325)">
	<g id="b2">
		<path id="b" class="st1" d="M-25.7,20H-2 M-25.7,25.9H-2 M-25.7,31.8H-2"/>
		<g>
			<path id="b_1_" class="st1" d="M-25.7,106.8H-2 M-25.7,112.8H-2 M-25.7,118.7H-2"/>
		</g>
	</g>
	<path class="st2" d="M-13.9,102.9v19.7"/>
	<circle class="st3" cx="-13.9" cy="69.3" r="23.7"/>
	<path class="st4" d="M-13.9,45.7c-6.5,0-11.8,5.3-11.8,11.8s5.3,11.8,11.8,11.8S-2,74.6-2,81.2S-7.3,93-13.9,93
		c-13.1,0-23.7-10.6-23.7-23.7S-26.9,45.7-13.9,45.7z"/>
</g>
<g transform="rotate(-123.6900675)">
	<g>
		<g id="b2_1_">
			<path id="b_2_" class="st1" d="M-81.2-35.5h23.7 M-81.2-29.5l23.7,0 M-81.2-23.6l23.7,0"/>
			<g>
				<path id="b_3_" class="st1" d="M-81.2,51.4h23.7 M-81.2,57.3h23.7 M-81.2,63.2h23.7"/>
			</g>
		</g>
	</g>
	<path class="st2" d="M-69.3-32.5v5.9 M-69.3,47.4v6.9 M-69.3,60.2v5.9"/>
</g>
</svg>
