<svg xmlns="http://www.w3.org/2000/svg" viewBox="0 0 832 195" width="832" height="195">
	<style>
		tspan { white-space:pre }
		.shp0 { fill: #00d8d8 } 
	</style>
	<path id="Layer" fill-rule="evenodd" class="shp0" d="M194.9 97.5C194.9 104.1 194.2 110.7 192.9 117.1C191.6 123.4 189.7 129.5 187.2 135.4C184.7 141.2 181.7 146.8 178.2 152C174.7 157.2 170.7 162 166.3 166.4C161.9 170.8 157.1 174.8 151.9 178.3C146.6 181.8 141.1 184.9 135.3 187.3C129.4 189.8 123.3 191.7 117 193C110.6 194.3 104 195 97.4 195C90.8 195 84.2 194.3 77.8 193C71.5 191.7 65.4 189.8 59.5 187.3C53.7 184.8 48.1 181.8 42.9 178.3C37.7 174.8 32.9 170.8 28.5 166.4C24.1 162 20.1 157.2 16.6 152C13.1 146.7 10 141.2 7.6 135.4C5.1 129.5 3.2 123.4 1.9 117.1C0.6 110.7 -0.1 104.1 -0.1 97.5C-0.1 90.9 0.6 84.3 1.9 77.9C3.2 71.6 5.1 65.5 7.6 59.6C10.1 53.8 13.1 48.2 16.6 43C20.1 37.8 24.1 33 28.5 28.6C32.9 24.2 37.7 20.2 42.9 16.7C48.2 13.2 53.7 10.1 59.5 7.7C65.4 5.2 71.5 3.3 77.8 2C84.2 0.7 90.7 -0.1 97.3 -0.1C103.9 -0.1 110.5 0.6 116.9 1.9C123.2 3.2 129.3 5.1 135.2 7.6C141 10.1 146.6 13.1 151.8 16.6C157 20.1 161.8 24.1 166.2 28.5C170.6 32.9 174.6 37.7 178.1 42.9C181.6 48.2 184.7 53.7 187.1 59.5C189.6 65.4 191.5 71.5 192.8 77.8C194.1 84.2 194.8 90.8 194.9 97.5ZM97.4 182.6C144.5 182.6 182.6 144.5 182.6 97.4C182.6 50.4 144.4 12.2 97.4 12.2C50.4 12.2 12.2 50.4 12.2 97.4C12.2 144.4 50.3 182.6 97.4 182.6Z" />
	<path id="Layer" class="shp0" d="M98.9 175.3L101.2 175.3C101.6 175.3 102 175.3 102.4 175.2L102.5 175.2C102.9 175.2 103.2 175.2 103.6 175.1L103.9 175.1C104.2 175.1 104.5 175.1 104.8 175L105.1 175C105.4 175 105.7 174.9 106.1 174.9L106.3 174.9C106.7 174.9 107.1 174.8 107.5 174.8C107.9 174.8 108.2 174.7 108.6 174.6L108.8 174.6C109.1 174.6 109.4 174.5 109.7 174.5L109.9 174.5C110.3 174.4 110.6 174.4 111 174.3C111.8 174.2 112.6 174 113.3 173.8L113.5 173.8C113.8 173.7 114.2 173.7 114.5 173.6L114.6 173.6C115.4 173.4 116.1 173.2 116.9 173C107.3 173.3 99.5 172 94.6 170.9C83.6 168.5 73.1 164.2 64.2 156.8C49.4 144.4 41.8 126.6 42 108.9C42.1 95.7 46.6 82.5 55.7 71.7C67.1 58.2 83.3 51.1 99.9 50.7L102.2 50.7L102.2 37.4L99.6 37.4C94.5 37.5 89.5 38.1 84.6 39.2C79.6 40.3 74.8 42 70.2 44.1C65.5 46.3 61.1 49 57 52.1C52.8 55.3 48.9 59 45.5 63.1C42.3 66.9 39.5 71 37.2 75.4C34.9 79.6 33.1 84.1 31.7 88.7C30.4 93.2 29.4 97.9 29 102.6C28.9 104.1 28.8 105.5 28.7 107L28.7 109.6C28.8 114.7 29.4 119.7 30.5 124.6C31.6 129.6 33.3 134.4 35.4 139C37.9 144.5 42.4 152.6 49.1 158.7C62.3 169.1 79 175.3 97.1 175.3L98.9 175.3L98.9 175.3Z" />
	<path id="Layer" class="shp0" d="M120.7 162.4C116.1 162.3 110.4 161.6 106 160.8C85.4 157.1 67.7 144.5 61.2 125.5C53.3 102.4 65.4 77.4 88.4 69.8C92.9 68.3 97.4 67.6 102 67.6C107.9 67.6 113.8 68.8 119.2 71L124.8 59.1C123.1 58.4 121.4 57.8 119.7 57.2C114 55.4 108 54.5 102 54.5C96 54.5 90 55.5 84.3 57.4C77 59.8 70.3 63.7 64.6 68.8C61.9 71.2 59.3 74 57.1 76.9C54.9 79.8 53 82.9 51.4 86.2C49.8 89.5 48.5 92.9 47.6 96.4C46.7 99.9 46 103.6 45.8 107.3C45.3 114.9 46.3 122.5 48.8 129.7C51.3 137 55.3 143.7 60.8 149.6C65.7 154.9 71.4 158.9 78.3 162.6C85.5 166.4 94.4 168.4 103.7 169.7C109.7 170.5 117.7 170.7 122.4 170.7C126.5 169.2 128.2 168.5 130.4 167.6C132.3 166.7 134.2 165.8 136.1 164.7C138 163.6 138.3 163.4 141.5 161.3C141.8 161.1 142.1 160.9 142.3 160.7C131.3 162.7 128.5 162.6 120.7 162.4L120.7 162.4Z" />
	<path id="Layer" fill-rule="evenodd" class="shp0" d="M158 146.4C154.5 150.8 150.4 154.8 146 158.3C141.4 159.3 138.7 159.7 135.1 159.9C122.1 160.8 108.7 159.7 99.6 156.7C90.1 153.5 81.2 147.9 74.7 140.9C71 136.9 68.1 132.6 66 128C63.7 122.8 62.5 117.3 62.5 111.8C62.5 106.3 63.6 101 65.7 96C67.7 91.2 70.7 86.8 74.4 83.1C78.1 79.4 82.5 76.4 87.3 74.4C92.3 72.3 97.6 71.2 103.1 71.2C108.6 71.2 113.9 72.3 118.9 74.4C123.7 76.4 128.1 79.4 131.8 83.1C134.7 85.9 137 89.1 138.9 92.6L127 98.5C122.3 90.2 113.4 84.5 103.1 84.5C88 84.5 75.7 96.7 75.7 111.9C75.7 127.1 89.3 139.4 103.7 144.2C113 147.3 123.9 148.1 132.8 148.1C137.8 148.1 142.2 147.8 145.3 147.6C149.3 147.3 155 146.7 158 146.4ZM553.5 114.7L553.5 146.8L530.7 146.8L530.7 75.1L552.6 75.1L552.6 86.3L553.1 86.3C558.2 77.8 564.5 74.3 571 74C573.1 73.8 574.5 74.1 575.5 74.6L575.5 94.3L574.9 94.3C563 92.7 553.7 99.2 553.7 114.7L553.5 114.7ZM732.1 146.7L709.3 146.7L709.3 75.2L731.2 75.2L731.2 84.9L731.7 84.9C736.9 77.3 743.8 73.1 753.7 73.1C769.3 73.1 778.6 84.2 778.6 100.2L778.6 146.8L755.9 146.8L755.9 104.6C755.9 97.1 752 91.8 744.7 91.8C737.2 91.8 732.1 98.1 732.1 107L732.1 146.7ZM605.1 146.8L582.1 146.8L582.1 75.1L604 75.1L604 86.3L604.5 86.3C609.6 77.8 615.9 74.3 622.4 74C624.5 73.8 625.9 74.1 626.9 74.6L626.9 94.3L626.3 94.3C614.4 92.7 605.1 99.2 605.1 114.7L605.1 146.8ZM627.8 110.9C627.8 89.5 642.8 73.2 664.5 73.2C674.7 73.2 682.8 76.5 688.9 82.1C697.3 89.9 701.7 102.4 701.5 116.9L650.1 116.9C651.5 126.4 656.8 132.5 666.2 132.5C672.3 132.5 676.1 129.8 678 125.3L700.2 125.3C698.6 131.7 694.4 137.9 688.2 142.2C682.1 146.3 674.9 148.7 665.8 148.7C642.2 148.7 627.6 132.4 627.8 110.9ZM664.7 89.1C656.1 89.1 651.6 94.5 650 103.2L678.3 103.2C677.5 94.7 672 89.1 664.7 89.1ZM792.6 89.3L783 89.3L783 75.1L792.5 75.1L792.5 52.4L814.7 52.4L814.7 75.1L827.6 75.1L827.6 89.3L814.7 89.3L814.7 122.9C814.7 128.5 817.7 129.9 822.7 129.9C824.7 129.9 830.4 129.7 831.2 129.7L831.2 146.3C829.3 146.9 821.5 147.4 815.4 147.4C802 147.4 792.6 143.1 792.6 127.8L792.6 89.3ZM410.9 67.6L385.4 67.6L385.4 46.6L461.7 46.6L461.7 67.6L435.7 67.6L435.7 146.6L410.9 146.6L410.9 67.6ZM270.2 146.7L221 146.7L221 46.6L269.2 46.6C279.6 46.6 287.2 49.2 292.5 53.5C298.2 58.3 301.1 64.7 301.1 72.7C301.1 82.6 295.9 88.9 287 92.3L287 92.8C297.9 96.1 304.9 105.4 304.9 117.2C304.9 127.3 301.2 134.7 294.7 139.6C288.8 144.2 280.7 146.8 270.2 146.7ZM245.4 66.3L245.4 86.3L265.5 86.3C272.7 86.3 277.5 82.7 277.5 76.2C277.5 70 272.9 66.3 265.7 66.3L245.4 66.3ZM245.4 126.8L267.6 126.8C275.7 126.8 280.7 122.2 280.7 115C280.7 107 274.8 103 267.3 103L245.4 103L245.4 126.8Z" />
	<path id="Layer" fill-rule="evenodd" class="shp0" d="M446.4 111C446.4 89.4 461.7 73.2 484.7 73.2C507.7 73.2 522.9 89.5 522.9 111C522.9 132.5 507.7 148.8 484.7 148.8C461.7 148.8 446.4 132.6 446.4 111ZM469.4 111C469.4 124.1 474.5 132.7 484.6 132.7C494.5 132.6 499.8 124 499.8 111C499.8 98 494.5 89.1 484.6 89.1C474.7 89.1 469.4 97.9 469.4 111Z" />
	<path id="Layer" fill-rule="evenodd" class="shp0" d="M314.5 75.1L337.3 75.1L337.3 146.6L314.5 146.6L314.5 75.1ZM354 127.8L354 89.3L344.4 89.3L344.4 75.1L354 75.1L354 52.4L376.2 52.4L376.2 75.1L389.1 75.1L389.1 89.3L376.2 89.3L376.2 122.9C376.2 128.5 379.2 129.9 384.2 129.9C386.2 129.9 391.9 129.7 392.7 129.7L392.7 146.3C390.8 146.9 383 147.4 376.9 147.4C363.7 147.4 354.1 143.1 354.1 127.8L354 127.8ZM314.5 46.6L337.3 46.6L337.3 65.1L314.5 65.1L314.5 46.6Z" />
</svg>