<svg xmlns="http://www.w3.org/2000/svg" viewBox="0 0 195 195" width="195" height="195">
	<style>
		tspan { white-space:pre }
		.shp0 { fill: #00d8d8 } 
	</style>
	<path id="Layer" fill-rule="evenodd" class="shp0" d="M194.9 97.5C194.9 104.1 194.2 110.7 192.9 117.1C191.6 123.4 189.7 129.5 187.2 135.4C184.7 141.2 181.7 146.8 178.2 152C174.7 157.2 170.7 162 166.3 166.4C161.9 170.8 157.1 174.8 151.9 178.3C146.6 181.8 141.1 184.9 135.3 187.3C129.4 189.8 123.3 191.7 117 193C110.6 194.3 104 195 97.4 195C90.8 195 84.2 194.3 77.8 193C71.5 191.7 65.4 189.8 59.5 187.3C53.7 184.8 48.1 181.8 42.9 178.3C37.7 174.8 32.9 170.8 28.5 166.4C24.1 162 20.1 157.2 16.6 152C13.1 146.7 10 141.2 7.6 135.4C5.1 129.5 3.2 123.4 1.9 117.1C0.6 110.7 -0.1 104.1 -0.1 97.5C-0.1 90.9 0.6 84.3 1.9 77.9C3.2 71.6 5.1 65.5 7.6 59.6C10.1 53.8 13.1 48.2 16.6 43C20.1 37.8 24.1 33 28.5 28.6C32.9 24.2 37.7 20.2 42.9 16.7C48.2 13.2 53.7 10.1 59.5 7.7C65.4 5.2 71.5 3.3 77.8 2C84.2 0.7 90.7 -0.1 97.3 -0.1C103.9 -0.1 110.5 0.6 116.9 1.9C123.2 3.2 129.3 5.1 135.2 7.6C141 10.1 146.6 13.1 151.8 16.6C157 20.1 161.8 24.1 166.2 28.5C170.6 32.9 174.6 37.7 178.1 42.9C181.6 48.2 184.7 53.7 187.1 59.5C189.6 65.4 191.5 71.5 192.8 77.8C194.1 84.2 194.8 90.8 194.9 97.5ZM97.4 182.6C144.5 182.6 182.6 144.5 182.6 97.4C182.6 50.4 144.4 12.2 97.4 12.2C50.4 12.2 12.2 50.4 12.2 97.4C12.2 144.4 50.3 182.6 97.4 182.6Z" />
	<path id="Layer" class="shp0" d="M98.9 175.3L101.2 175.3C101.6 175.3 102 175.3 102.4 175.2L102.5 175.2C102.9 175.2 103.2 175.2 103.6 175.1L103.9 175.1C104.2 175.1 104.5 175.1 104.8 175L105.1 175C105.4 175 105.7 174.9 106.1 174.9L106.3 174.9C106.7 174.9 107.1 174.8 107.5 174.8C107.9 174.8 108.2 174.7 108.6 174.6L108.8 174.6C109.1 174.6 109.4 174.5 109.7 174.5L109.9 174.5C110.3 174.4 110.6 174.4 111 174.3C111.8 174.2 112.6 174 113.3 173.8L113.5 173.8C113.8 173.7 114.2 173.7 114.5 173.6L114.6 173.6C115.4 173.4 116.1 173.2 116.9 173C107.3 173.3 99.5 172 94.6 170.9C83.6 168.5 73.1 164.2 64.2 156.8C49.4 144.4 41.8 126.6 42 108.9C42.1 95.7 46.6 82.5 55.7 71.7C67.1 58.2 83.3 51.1 99.9 50.7L102.2 50.7L102.2 37.4L99.6 37.4C94.5 37.5 89.5 38.1 84.6 39.2C79.6 40.3 74.8 42 70.2 44.1C65.5 46.3 61.1 49 57 52.1C52.8 55.3 48.9 59 45.5 63.1C42.3 66.9 39.5 71 37.2 75.4C34.9 79.6 33.1 84.1 31.7 88.7C30.4 93.2 29.4 97.9 29 102.6C28.9 104.1 28.8 105.5 28.7 107L28.7 109.6C28.8 114.7 29.4 119.7 30.5 124.6C31.6 129.6 33.3 134.4 35.4 139C37.9 144.5 42.4 152.6 49.1 158.7C62.3 169.1 79 175.3 97.1 175.3L98.9 175.3L98.9 175.3Z" />
	<path id="Layer" class="shp0" d="M120.7 162.4C116.1 162.3 110.4 161.6 106 160.8C85.4 157.1 67.7 144.5 61.2 125.5C53.3 102.4 65.4 77.4 88.4 69.8C92.9 68.3 97.4 67.6 102 67.6C107.9 67.6 113.8 68.8 119.2 71L124.8 59.1C123.1 58.4 121.4 57.8 119.7 57.2C114 55.4 108 54.5 102 54.5C96 54.5 90 55.5 84.3 57.4C77 59.8 70.3 63.7 64.6 68.8C61.9 71.2 59.3 74 57.1 76.9C54.9 79.8 53 82.9 51.4 86.2C49.8 89.5 48.5 92.9 47.6 96.4C46.7 99.9 46 103.6 45.8 107.3C45.3 114.9 46.3 122.5 48.8 129.7C51.3 137 55.3 143.7 60.8 149.6C65.7 154.9 71.4 158.9 78.3 162.6C85.5 166.4 94.4 168.4 103.7 169.7C109.7 170.5 117.7 170.7 122.4 170.7C126.5 169.2 128.2 168.5 130.4 167.6C132.3 166.7 134.2 165.8 136.1 164.7C138 163.6 138.3 163.4 141.5 161.3C141.8 161.1 142.1 160.9 142.3 160.7C131.3 162.7 128.5 162.6 120.7 162.4L120.7 162.4Z" />
	<path id="Layer" class="shp0" d="M145.3 147.6C142.2 147.8 137.8 148.1 132.8 148.1C123.9 148.1 113 147.3 103.7 144.2C89.3 139.4 75.7 127.1 75.7 111.9C75.7 96.7 88 84.5 103.1 84.5C113.4 84.5 122.3 90.2 127 98.5L138.9 92.6C137 89.1 134.7 85.9 131.8 83.1C128.1 79.4 123.7 76.4 118.9 74.4C113.9 72.3 108.6 71.2 103.1 71.2C97.6 71.2 92.3 72.3 87.3 74.4C82.5 76.4 78.1 79.4 74.4 83.1C70.7 86.8 67.7 91.2 65.7 96C63.6 101 62.5 106.3 62.5 111.8C62.5 117.3 63.7 122.8 66 128C68.1 132.6 71 136.9 74.7 140.9C81.2 147.9 90.1 153.5 99.6 156.7C108.7 159.7 122.1 160.8 135.1 159.9C138.7 159.7 141.4 159.3 146 158.3C150.4 154.8 154.5 150.8 158 146.4C155 146.7 149.3 147.3 145.3 147.6Z" />
</svg>