<svg xmlns="http://www.w3.org/2000/svg" width="196" height="50" viewBox="0 0 196 50">
  <metadata><?xpacket begin="﻿" id="W5M0MpCehiHzreSzNTczkc9d"?>
<x:xmpmeta xmlns:x="adobe:ns:meta/" x:xmptk="Adobe XMP Core 5.6-c138 79.159824, 2016/09/14-01:09:01        ">
   <rdf:RDF xmlns:rdf="http://www.w3.org/1999/02/22-rdf-syntax-ns#">
      <rdf:Description rdf:about=""/>
   </rdf:RDF>
</x:xmpmeta>
                                                                                                    
                                                                                                    
                                                                                                    
                                                                                                    
                                                                                                    
                                                                                                    
                                                                                                    
                                                                                                    
                                                                                                    
                                                                                                    
                                                                                                    
                                                                                                    
                                                                                                    
                                                                                                    
                                                                                                    
                                                                                                    
                                                                                                    
                                                                                                    
                                                                                                    
                                                                                                    
                           
<?xpacket end="w"?></metadata>
<defs>
    <style>
      .cls-1 {
        fill: #fff;
      }

      .cls-1, .cls-2 {
        fill-rule: evenodd;
      }

      .cls-2 {
        fill: #326dec;
      }
    </style>
  </defs>
  <path id="ICO_Database" data-name="ICO Database" class="cls-1" d="M64.482,44h0.962V34.9H64.482V44Zm7.878,0.078a5.028,5.028,0,0,0,1.878-.345,3.932,3.932,0,0,0,1.463-.995l-0.611-.611A3.576,3.576,0,0,1,72.4,43.22a3.953,3.953,0,0,1-1.963-.494,3.609,3.609,0,0,1-1.385-1.352,3.948,3.948,0,0,1,0-3.848,3.61,3.61,0,0,1,1.385-1.352A3.955,3.955,0,0,1,72.4,35.68a3.625,3.625,0,0,1,2.691,1.079l0.611-.611a3.883,3.883,0,0,0-1.456-.988,5.064,5.064,0,0,0-1.872-.338,5.005,5.005,0,0,0-2.444.6,4.367,4.367,0,0,0-1.709,1.657,4.866,4.866,0,0,0,0,4.745,4.376,4.376,0,0,0,1.7,1.657,4.966,4.966,0,0,0,2.438.6h0Zm9.178,0a4.967,4.967,0,0,0,2.438-.6,4.424,4.424,0,0,0,1.709-1.657,4.822,4.822,0,0,0,0-4.745,4.427,4.427,0,0,0-1.709-1.657,5.268,5.268,0,0,0-4.888.006,4.413,4.413,0,0,0-1.716,1.658,4.842,4.842,0,0,0,0,4.732,4.413,4.413,0,0,0,1.716,1.657,5,5,0,0,0,2.451.6h0Zm0-.858a3.959,3.959,0,0,1-1.957-.487A3.56,3.56,0,0,1,78.2,41.381a3.973,3.973,0,0,1,0-3.861,3.561,3.561,0,0,1,1.378-1.352,4.157,4.157,0,0,1,3.906,0,3.531,3.531,0,0,1,1.365,1.352,4.019,4.019,0,0,1,0,3.861,3.529,3.529,0,0,1-1.365,1.352,3.924,3.924,0,0,1-1.95.487h0ZM91.873,44h3.7a5.414,5.414,0,0,0,2.548-.578,4.221,4.221,0,0,0,1.716-1.612,4.858,4.858,0,0,0,0-4.719,4.222,4.222,0,0,0-1.716-1.612,5.416,5.416,0,0,0-2.548-.578h-3.7V44Zm0.962-.832V35.732h2.691a4.413,4.413,0,0,1,2.093.474A3.448,3.448,0,0,1,99.01,37.52a4.019,4.019,0,0,1,0,3.861,3.447,3.447,0,0,1-1.391,1.313,4.411,4.411,0,0,1-2.093.474H92.835Zm11.972-6.058a4.864,4.864,0,0,0-1.534.24,3.7,3.7,0,0,0-1.248.683l0.416,0.689a3.152,3.152,0,0,1,1.027-.592,3.671,3.671,0,0,1,1.248-.215,2.04,2.04,0,0,1,1.443.462,1.75,1.75,0,0,1,.494,1.346v0.416h-2.171a3.085,3.085,0,0,0-2.008.533,1.747,1.747,0,0,0-.631,1.4,1.765,1.765,0,0,0,.676,1.443,2.815,2.815,0,0,0,1.82.546,3.207,3.207,0,0,0,1.437-.3,2.114,2.114,0,0,0,.916-0.832V44h0.884V39.762a2.586,2.586,0,0,0-.715-1.983,2.893,2.893,0,0,0-2.054-.669h0Zm-0.325,6.227a2.072,2.072,0,0,1-1.274-.345,1.119,1.119,0,0,1-.455-0.943q0-1.222,1.755-1.222h2.145v1.118a2.133,2.133,0,0,1-.832,1.034,2.429,2.429,0,0,1-1.339.358h0Zm8.879-.416a1.374,1.374,0,0,1-.461.26,1.7,1.7,0,0,1-.553.091,1.157,1.157,0,0,1-.877-0.319,1.29,1.29,0,0,1-.306-0.929V37.942h2.08v-0.78h-2.08V35.667h-0.923v1.495h-1.222v0.78h1.222v4.134a1.811,1.811,0,0,0,2,1.989,2.6,2.6,0,0,0,.8-0.123,1.748,1.748,0,0,0,.643-0.357Zm4.394-5.811a4.86,4.86,0,0,0-1.534.24,3.7,3.7,0,0,0-1.248.683l0.416,0.689a3.142,3.142,0,0,1,1.027-.592,3.671,3.671,0,0,1,1.248-.215,2.04,2.04,0,0,1,1.443.462,1.754,1.754,0,0,1,.494,1.346v0.416H117.43a3.083,3.083,0,0,0-2.008.533,1.878,1.878,0,0,0,.045,2.847,2.813,2.813,0,0,0,1.82.546,3.207,3.207,0,0,0,1.437-.3,2.114,2.114,0,0,0,.916-0.832V44h0.884V39.762a2.586,2.586,0,0,0-.715-1.983,2.9,2.9,0,0,0-2.054-.669h0Zm-0.325,6.227a2.07,2.07,0,0,1-1.274-.345,1.119,1.119,0,0,1-.455-0.943q0-1.222,1.755-1.222H119.6v1.118a2.133,2.133,0,0,1-.832,1.034,2.432,2.432,0,0,1-1.339.358h0Zm9.126-6.227a3.231,3.231,0,0,0-1.5.345,2.842,2.842,0,0,0-1.1,1.008V34.354h-0.923V44h0.884V42.648a2.812,2.812,0,0,0,1.1,1.053,3.219,3.219,0,0,0,1.54.364,3.471,3.471,0,0,0,1.742-.442,3.16,3.16,0,0,0,1.222-1.235,3.915,3.915,0,0,0,0-3.614,3.119,3.119,0,0,0-1.222-1.229,3.513,3.513,0,0,0-1.742-.435h0Zm-0.065,6.136a2.578,2.578,0,0,1-1.306-.332,2.351,2.351,0,0,1-.91-0.942,3.08,3.08,0,0,1,0-2.782,2.352,2.352,0,0,1,.91-0.942,2.727,2.727,0,0,1,2.606,0,2.343,2.343,0,0,1,.917.942,3.088,3.088,0,0,1,0,2.782,2.342,2.342,0,0,1-.917.942,2.59,2.59,0,0,1-1.3.332h0ZM134.2,37.11a4.86,4.86,0,0,0-1.534.24,3.7,3.7,0,0,0-1.248.683l0.416,0.689a3.142,3.142,0,0,1,1.027-.592,3.671,3.671,0,0,1,1.248-.215,2.04,2.04,0,0,1,1.443.462,1.754,1.754,0,0,1,.494,1.346v0.416h-2.171a3.083,3.083,0,0,0-2.008.533,1.878,1.878,0,0,0,.045,2.847,2.813,2.813,0,0,0,1.82.546,3.207,3.207,0,0,0,1.437-.3,2.114,2.114,0,0,0,.916-0.832V44h0.884V39.762a2.586,2.586,0,0,0-.715-1.983,2.9,2.9,0,0,0-2.054-.669h0Zm-0.325,6.227a2.07,2.07,0,0,1-1.274-.345,1.119,1.119,0,0,1-.455-0.943q0-1.222,1.755-1.222h2.145v1.118a2.133,2.133,0,0,1-.832,1.034,2.432,2.432,0,0,1-1.339.358h0Zm7.436,0.728a3.557,3.557,0,0,0,2.074-.526,1.654,1.654,0,0,0,.747-1.423,1.467,1.467,0,0,0-.351-1.04,1.931,1.931,0,0,0-.845-0.533,11.945,11.945,0,0,0-1.313-.312,10.145,10.145,0,0,1-1.04-.227,1.557,1.557,0,0,1-.63-0.344,0.809,0.809,0,0,1-.254-0.624,0.956,0.956,0,0,1,.449-0.819,2.336,2.336,0,0,1,1.332-.312,3.451,3.451,0,0,1,2.015.585l0.4-.741a3.653,3.653,0,0,0-1.092-.462,5.163,5.163,0,0,0-1.326-.175,3.212,3.212,0,0,0-1.989.546,1.69,1.69,0,0,0-.715,1.4,1.534,1.534,0,0,0,.358,1.079,1.964,1.964,0,0,0,.864.552,11.425,11.425,0,0,0,1.339.319,8.959,8.959,0,0,1,1,.215,1.646,1.646,0,0,1,.624.325,0.741,0.741,0,0,1,.247.591,0.93,0.93,0,0,1-.448.826,2.584,2.584,0,0,1-1.385.292,4.285,4.285,0,0,1-1.352-.215,3.5,3.5,0,0,1-1.079-.553l-0.416.728a3.427,3.427,0,0,0,1.19.6,5.24,5.24,0,0,0,1.592.24h0ZM151.8,40.581a3.7,3.7,0,0,0-.429-1.8,3.131,3.131,0,0,0-1.183-1.229,3.513,3.513,0,0,0-3.412,0,3.153,3.153,0,0,0-1.2,1.235,3.658,3.658,0,0,0-.436,1.794,3.542,3.542,0,0,0,.455,1.794,3.23,3.23,0,0,0,1.268,1.242,3.793,3.793,0,0,0,1.865.448,3.849,3.849,0,0,0,1.5-.286,2.922,2.922,0,0,0,1.137-.832l-0.52-.6a2.556,2.556,0,0,1-.923.67,2.947,2.947,0,0,1-1.17.227,2.718,2.718,0,0,1-1.872-.657,2.444,2.444,0,0,1-.819-1.723h5.72ZM148.487,37.9a2.345,2.345,0,0,1,1.671.63,2.479,2.479,0,0,1,.76,1.645h-4.849a2.476,2.476,0,0,1,.761-1.645,2.323,2.323,0,0,1,1.657-.63h0Z"/>
  <path id="Crypterio" class="cls-1" d="M74.36,26.36a10.625,10.625,0,0,0,8.61-3.57l-2.94-3.15c-1.65,1.5-3.12,2.46-5.52,2.46-3.6,0-6.09-3-6.09-6.6,0-3.66,2.55-6.6,6.09-6.6a7.269,7.269,0,0,1,5.4,2.34l2.76-3.18A11.077,11.077,0,0,0,63.59,15.5,10.614,10.614,0,0,0,74.36,26.36ZM84.98,26h4.56V20.06c0-3.84,1.86-5.67,4.89-5.67h0.24V9.621c-2.7-.12-4.2,1.32-5.13,3.54V9.921H84.98V26Zm15.179,4.89c2.73,0,4.05-1.23,5.28-4.5l6.18-16.469h-4.74l-3.51,10.95L99.71,9.921H94.88l6.3,16.139a1.523,1.523,0,0,1-1.59,1.05,4.144,4.144,0,0,1-1.95-.63l-1.53,3.3A7.549,7.549,0,0,0,100.159,30.89Zm12.96-.09h4.56V23.9a6.175,6.175,0,0,0,5.01,2.4c3.81,0,7.32-2.94,7.32-8.31,0-5.43-3.57-8.37-7.32-8.37a5.905,5.905,0,0,0-5.01,2.61V9.921h-4.56V30.8Zm8.4-8.37c-2.13,0-3.9-1.77-3.9-4.44,0-2.73,1.77-4.5,3.9-4.5s3.93,1.77,3.93,4.44C125.449,20.69,123.649,22.43,121.519,22.43Zm16.08,3.84a6.723,6.723,0,0,0,3.6-.93V21.68a4.638,4.638,0,0,1-2.25.57,1.321,1.321,0,0,1-1.47-1.56v-6.87h3.78v-3.9h-3.78V5.811h-4.56v4.11H131v3.9h1.92v7.62C132.919,25.16,134.809,26.27,137.6,26.27Zm12.99,0.09a8.042,8.042,0,0,0,6.569-3l-2.61-2.31a5.269,5.269,0,0,1-3.9,1.65,3.729,3.729,0,0,1-3.929-3.15h11.189c0.03-.42.06-0.84,0.06-1.2,0-4.56-2.46-8.73-7.829-8.73-4.68,0-7.95,3.78-7.95,8.37A8.057,8.057,0,0,0,150.589,26.36Zm-3.93-9.66c0.36-2.07,1.59-3.42,3.48-3.42,1.919,0,3.119,1.38,3.389,3.42h-6.869Zm13.5,9.3h4.559V20.06c0-3.84,1.86-5.67,4.89-5.67h0.24V9.621c-2.7-.12-4.2,1.32-5.13,3.54V9.921h-4.559V26Zm11.43-17.849h4.8V4.1h-4.8v4.05ZM171.709,26h4.559V9.921h-4.559V26Zm15.539,0.36a8.376,8.376,0,1,0-8.67-8.37A8.439,8.439,0,0,0,187.248,26.36Zm0.06-3.93a4.272,4.272,0,0,1-4.23-4.44,4.137,4.137,0,0,1,4.17-4.44,4.272,4.272,0,0,1,4.23,4.44A4.137,4.137,0,0,1,187.308,22.43Z"/>
  <path class="cls-2" d="M25,0A25,25,0,1,1,0,25,25,25,0,0,1,25,0Zm0,4A21,21,0,1,1,4,25,21,21,0,0,1,25,4Zm0,2A19,19,0,1,1,6,25,19,19,0,0,1,25,6Z"/>
  <path id="C" class="cls-1" d="M29.225,19.505a5.1,5.1,0,0,0-3.463-1.428,4.679,4.679,0,0,0-2.545.748,5.134,5.134,0,0,0-1.879,2.2,6.639,6.639,0,0,0-.382,1.056h2.089v1.957H20.663c-0.005.133-.018,0.26-0.018,0.4A9.956,9.956,0,0,0,20.771,26h2.274v1.957h-1.7a7.8,7.8,0,0,0,.892,1.61,4.955,4.955,0,0,0,4.171,2.147,5.948,5.948,0,0,0,3.154-.928,10.973,10.973,0,0,0,3.267-3.09L35,29.288a16.074,16.074,0,0,1-3.867,3.977A10.935,10.935,0,0,1,25.11,35a9.585,9.585,0,0,1-8.56-4.975,10.192,10.192,0,0,1-.867-2.067H13.474L12.649,26h2.638a11.063,11.063,0,0,1-.068-1.117c0-.286.029-0.562,0.05-0.84H11.824L11,22.084h4.593a9.73,9.73,0,0,1,.923-2.254,9.3,9.3,0,0,1,3.53-3.554A9.871,9.871,0,0,1,25.026,15a9.927,9.927,0,0,1,4.89,1.164l0.462-.831h1.989l1.919,6.942-2.608.748A12.986,12.986,0,0,0,29.225,19.505Z"/>
</svg>
